<?xml version="1.0" encoding="utf-8"?>
<!-- Generator: Adobe Illustrator 19.1.0, SVG Export Plug-In . SVG Version: 6.00 Build 0)  -->
<!DOCTYPE svg PUBLIC "-//W3C//DTD SVG 1.1//EN" "http://www.w3.org/Graphics/SVG/1.1/DTD/svg11.dtd">
<svg version="1.1" id="Layer_1" xmlns="http://www.w3.org/2000/svg" xmlns:xlink="http://www.w3.org/1999/xlink" x="0px" y="0px"
	 width="275px" height="72px" viewBox="0 0 275 72" style="enable-background:new 0 0 275 72;" xml:space="preserve">
<style type="text/css">
	.st0{fill:none;stroke:#FFFFFF;stroke-width:7;stroke-linecap:round;stroke-linejoin:round;stroke-miterlimit:10;}
	.st1{fill:#FFFFFF;}
	.st2{fill:none;stroke:#FFFFFF;stroke-width:8;stroke-linecap:round;stroke-linejoin:round;stroke-miterlimit:10;}
	.st3{fill:none;stroke:#FFFFFF;stroke-width:2;stroke-miterlimit:10;}
</style>
<g>
	<g>
		<path class="st1" d="M39.2,1.9c2,0,4.1,0,6.2,0c2.2,0,4.4,0,6.6,0h171c1.1,0,2.1,0,3.1,0c1,0,2,0,3.1,0c12.6,0,23.7,0.4,31.5,4.7
			C269.1,11.5,273,20.8,273,36c0,14.9-3.3,24.1-10.4,29c-6.2,4.3-14.9,5.1-26.8,5.1c-2,0-4.1,0-6.2,0c-2.2,0-4.4,0-6.6,0H52
			c-2.2,0-4.5,0-6.6,0c-2.1,0-4.1,0-6.2,0c-11.9,0-20.6-0.9-26.8-5.1C5.3,60.1,2,50.9,2,36C2,21.1,5.3,11.9,12.4,7
			C18.6,2.8,27.3,1.9,39.2,1.9 M39.2-0.1C17-0.1,0,2.5,0,36c0,33.5,17,36.1,39.2,36.1c4.1,0,8.4-0.1,12.8-0.1h171
			c4.4,0,8.7,0.1,12.8,0.1C258,72.1,275,69.5,275,36c0-34.7-20.4-36-45.8-36c-2,0-4.1,0-6.2,0H52C47.6,0,43.3-0.1,39.2-0.1L39.2-0.1
			z"/>
	</g>
</g>
</svg>
