<?xml version="1.0" encoding="utf-8"?>
<!-- Generator: Adobe Illustrator 19.1.0, SVG Export Plug-In . SVG Version: 6.00 Build 0)  -->
<!DOCTYPE svg PUBLIC "-//W3C//DTD SVG 1.1//EN" "http://www.w3.org/Graphics/SVG/1.1/DTD/svg11.dtd">
<svg version="1.1" id="Layer_1" xmlns="http://www.w3.org/2000/svg" xmlns:xlink="http://www.w3.org/1999/xlink" x="0px" y="0px"
	 width="76px" height="76px" viewBox="0 0 76 76" style="enable-background:new 0 0 76 76;" xml:space="preserve">
<style type="text/css">
	.st0{fill:none;stroke:#FFFFFF;stroke-width:7;stroke-linecap:round;stroke-linejoin:round;stroke-miterlimit:10;}
	.st1{fill:#FFFFFF;}
	.st2{fill:none;stroke:#FFFFFF;stroke-width:8;stroke-linecap:round;stroke-linejoin:round;stroke-miterlimit:10;}
	.st3{fill:none;stroke:#FFFFFF;stroke-width:2;stroke-miterlimit:10;}
	.st4{fill:#FF7E71;}
	.st5{fill:none;stroke:#FF7E71;stroke-miterlimit:10;}
</style>
<circle class="st4" cx="38" cy="38" r="38"/>
<g>
	<path class="st3" d="M41.8,28.8c6.4-13.8-3.9-19.6-7.6-17.3c-5.8,3.6,0.3,8.1-2.3,13.9c-1.1,2.4-5.5,3.8-9.3,10.7
		c-1.2-0.8-6.6,0.2-4.7,11c1.4,8.2,5.5,10.7,8.9,7.3c10.6,6.7,21.3,7.3,22-1.2c5-1.8,7.1-5.7,5.3-9.6C61.4,41.4,62.8,31.1,41.8,28.8
		z"/>
	<g>
		<path class="st1" d="M29,40.1l6-2c0.5-0.2,1.1,0.1,1.3,0.6c0.2,0.5-0.1,1.1-0.6,1.3c-0.1,0-0.2,0.1-0.3,0.1L29,40.1z"/>
	</g>
	<g>
		<path class="st1" d="M29.2,43.8l8.1-0.5c0.6,0,1,0.4,1.1,0.9s-0.4,1-0.9,1.1c-0.1,0-0.2,0-0.2,0L29.2,43.8z"/>
	</g>
	<g>
		<path class="st1" d="M28.4,47.1l7.5,1.3c0.5,0.1,0.9,0.6,0.8,1.2s-0.6,0.9-1.2,0.8c-0.1,0-0.2,0-0.3-0.1L28.4,47.1z"/>
	</g>
</g>
</svg>
