<?xml version="1.0" encoding="utf-8"?>
<!-- Generator: Adobe Illustrator 19.1.0, SVG Export Plug-In . SVG Version: 6.00 Build 0)  -->
<!DOCTYPE svg PUBLIC "-//W3C//DTD SVG 1.1//EN" "http://www.w3.org/Graphics/SVG/1.1/DTD/svg11.dtd">
<svg version="1.1" id="Layer_1" xmlns="http://www.w3.org/2000/svg" xmlns:xlink="http://www.w3.org/1999/xlink" x="0px" y="0px"
	 width="172px" height="118px" viewBox="0 0 172 118" style="enable-background:new 0 0 172 118;" xml:space="preserve">
<style type="text/css">
	.st0{fill:none;stroke:#FFFFFF;stroke-width:7;stroke-linecap:round;stroke-linejoin:round;stroke-miterlimit:10;}
	.st1{fill:#FFFFFF;}
	.st2{fill:none;stroke:#FFFFFF;stroke-width:8;stroke-linecap:round;stroke-linejoin:round;stroke-miterlimit:10;}
	.st3{fill:none;stroke:#FFFFFF;stroke-width:2;stroke-miterlimit:10;}
</style>
<g>
	<path class="st1" d="M114.2,76.1c-4.1,4.2-9,7.4-14.7,9.1c-6.2,1.8-13,1.7-19.2-0.2c-7.5-2.2-13.9-6.5-19.6-11.7
		c-2.6-2.4-5.3-4.8-7.9-7.2c-2.5-2.2-5-4.4-7.4-6.6c-1.2-1.1-2.4-2.1-3.6-3.2c-0.3-0.3-0.7-0.6-1-0.9c-0.4-0.4-0.4-0.3-0.3-0.8
		c0.2-0.7,0.6-1.4,0.9-2c1.5-3.6,2.9-7.2,4.6-10.7c1.4-3,3.2-6,4.3-9.2c0.8-2.5-0.6-5.2-3.2-5.9c-2.7-0.7-4.6,1.3-6.3,3.2
		c-4.3,4.6-7,10.2-8.7,16.2c-0.4,1.5-0.8,2.9-1.1,4.4c-0.2-3.9-0.2-7.8-0.1-11.7c0.1-1.3,0.2-2.6-0.4-3.9c-0.7-1.5-1.9-2.6-3.5-3.1
		c-3.2-1-6.5,1.2-7.1,4.4c-0.7,3.6-1.1,7.2-1.2,10.8c-0.2,8.9,1.3,17.8,4.6,26.1c0.8,1.9,1.7,3.8,2.6,5.7c0.7,1.3,1.3,2.7,2.2,3.9
		c2.1,2.8,6.4,3,8.7,0.3c2.5-3,0.7-6.3-0.5-9.3c-1.7-4.4-3.1-8.9-4.1-13.6c6.1,6.4,12.3,12.8,18.5,19.1c3,3,5.9,6,9.3,8.6
		c7.7,5.8,16.7,9.9,26.4,10.8c10.1,1,20.5-1.5,28.6-7.7c2-1.6,3.9-3.3,5.6-5.3c1.5-1.8,3.2-3.7,3.1-6.1
		C123.6,74.9,117.5,72.6,114.2,76.1z"/>
	<path class="st1" d="M70.2,52.4c-1.6,7.4,0.7,15.3,6.3,20.7c6.5,6.3,16.5,7.9,24.7,4c8.5-4,13.5-13.3,12.5-22.5
		c-1.1-10.1-9.5-18.3-19.6-19.3C83.2,34.2,72.3,41.4,70.2,52.4z M80.9,55.1c0.3-2.7,2.5-5.3,4.8-6.6c2.5-1.4,5.6-1.7,8.2-0.7
		c5.5,2.1,7.9,8.6,5.2,13.8c-1.6,3-5.4,5.7-8.9,5.2c0.1,0,0.2,0,0.4,0c-3-0.3-5.8-1.2-7.7-3.8C81,60.8,80.5,58,80.9,55.1z"/>
	<path class="st1" d="M131.3,36.3c-0.2-3.7-0.4-7.4-0.8-11c-0.3-2.8-2.4-5.2-5.4-5.3c-3-0.1-5.5,2.3-5.7,5.3
		c-0.2,3.5-0.2,7-0.2,10.4c0,7.8,0.3,15.8-0.6,23.5c-0.3,2.8,0.8,5.5,3.6,6.5c3,1,6.1-0.7,7.1-3.6c1.3-3.8,1.7-7.8,2-11.7
		C131.5,45.8,131.5,41,131.3,36.3C131.2,34.2,131.4,38.4,131.3,36.3z"/>
	<path class="st1" d="M148.2,36.7c-3.1-0.6-5.9,1.4-6.6,4.4c-0.8,3.8-1.6,7.5-2.7,11.3c-2.3,8.1-5.1,16-7.6,24
		c-0.4,1.2-0.7,2.4-0.5,3.6c0.2,1.6,1.2,3.1,2.6,3.9c2.8,1.7,6.4,0.5,7.9-2.3c3.7-7.1,6.4-14.8,8.6-22.5c1.3-4.6,2.3-9.4,2.7-14.1
		c0.1-1.6,0.3-3.4-0.3-4.9C151.6,38.4,150.1,37,148.2,36.7C145.2,36.1,150.9,37.2,148.2,36.7z"/>
	<path class="st1" d="M83.8,30.2c5.1-0.2,7.1-7.2,3.1-10.3c-4-3.1-9.8,0.7-8.8,5.6C78.7,28.1,81,30.3,83.8,30.2z"/>
	<path class="st1" d="M100.8,30.1c2.3-0.1,4.5-1.6,5.3-3.8c0.9-2.3-0.1-4.8-2-6.2c-4.1-2.9-10,0.5-8.9,5.6
		C95.7,28.3,98.1,30.2,100.8,30.1C103.9,30,97.7,30.2,100.8,30.1z"/>
	<path class="st1" d="M51.8,52.3c0.2,3.4,0,8,3.7,9.6c3.7,1.7,8-1.4,7.8-5.4c0,0.2,0,0.3,0,0.5c0.8-4.8,0.7-9.7,1.6-14.5
		c0.1-0.7,0.3-1.5,0.6-2.1c0.5-0.9,1.6-1.4,2.5-1.8c1.5-0.8,3-1.8,3.6-3.5c0.8-2.1,0.2-4.6-1.4-6.1c-1.5-1.3-3.3-1.6-5.2-1.3
		c-5.5,1-9.8,4.3-11.8,9.5C51.3,41.9,51.5,47.3,51.8,52.3C51.8,53.6,51.7,51.6,51.8,52.3z"/>
	<path class="st1" d="M171.4,42c0-7.4-3.6-14.5-9.4-19c-2.9-2.3-6.2-3.8-9.8-4.6c-1.2-0.3-2.3-0.4-3.5-0.5c-0.1,0-0.7,0-0.7,0
		c-0.1-0.1-0.2-0.5-0.2-0.7c-0.2-0.5-0.4-1-0.6-1.4c-0.7-1.7-1.7-3.3-2.8-4.7c-4.5-6-11.8-9.7-19.3-9.7c-2.4,0-4.7,0.3-7,1
		c-1,0.3-2,0.6-2.9,1.1c-0.4,0.2-1.1,0.7-1.5,0.7c-0.4,0-1.4-0.8-1.8-1c-4.1-2.1-8.8-3.1-13.4-2.7c-1.2,0.1-2.4,0.3-3.6,0.6
		c-0.5,0.1-1.1,0.3-1.6,0.4c-0.2,0.1-0.6,0.3-0.9,0.3c-0.3,0-0.8-0.3-1-0.4c-2.3-0.8-4.7-1.2-7.1-1.3c-4.2-0.1-8.4,0.8-12.2,2.8
		c-1.8,1-3.5,2.2-5,3.5c-0.7,0.6-1.3,1.5-2,2.1c-0.6,0.5-2,0.4-2.8,0.5c-0.8,0.1-1.6,0.3-2.4,0.5c-0.5,0.1-1,0.2-1.5,0.4
		c-0.5,0.1-1.3,0.6-1.8,0.5c-0.4,0-1.2-0.6-1.6-0.7c-0.5-0.2-1-0.4-1.5-0.6c-1.2-0.4-2.4-0.7-3.6-0.9c-4.4-0.7-9-0.2-13.1,1.6
		c-2,0.9-3.9,2-5.6,3.4c-0.5,0.4-0.8,0.3-1.4,0.2c-0.6-0.1-1.2-0.2-1.8-0.3c-1.1-0.1-2.3-0.2-3.5-0.1c-7.3,0.2-14.2,3.8-18.5,9.6
		c-3.7,4.9-4.8,10.6-5.5,16.5C-0.3,46.5-0.2,54,0.9,61.4c0.9,6.4,2.6,12.7,5,18.7c1.4,3.5,3,6.9,4.8,10.1c1.8,3.2,3.9,6,6.7,8.3
		c6.6,5.3,15.8,6.8,23.7,3.8c1-0.4,2-0.8,3-1.3c0.3-0.1,1-0.8,1.3-0.8c0.3,0,1,0.8,1.3,1c0.6,0.5,1.2,1,1.8,1.5
		c2.1,1.6,4.3,3.1,6.5,4.5c16.5,10.1,36.8,13.6,55.3,7.3c4.3-1.5,8.5-3.5,12.3-6c2-1.3,4-2.7,5.8-4.3c0.4-0.3,0.8-0.7,1.2-1
		c0.4-0.4,0.4-0.4,0.9-0.4c0.2,0,0.5,0.1,0.7,0.2c1.4,0.3,2.8,0.4,4.1,0.5c7.7,0.2,15.1-3.2,19.9-9.2c1.8-2.3,3-4.9,4.3-7.6
		c1.9-4.2,3.7-8.6,5.2-12.9c2.7-7.7,5-15.8,6-23.9C171.3,47.2,171.5,44.6,171.4,42C171.4,30.5,171.4,42.1,171.4,42z M162.5,44.1
		c-0.3,11-4,22-8,32.2c-1,2.6-2.2,5.2-3.4,7.8c-0.9,1.9-1.8,3.8-3.3,5.4c-3.6,4-9.1,5.9-14.4,4.9c-1.6-0.3-3.1-0.9-4.6-1.6
		c-0.3-0.2-0.6-0.5-0.9-0.3c-0.3,0.1-0.6,0.7-0.8,0.9c-0.5,0.6-1.1,1.2-1.7,1.7c-2.2,2.2-4.6,4.1-7.2,5.8c-5.5,3.6-11.8,6-18.2,7.2
		c-12.6,2.3-25.8-0.4-37-6.4c-6.1-3.3-11.6-7.5-16.4-12.4c-0.4-0.4-0.8-0.8-1.1-1.2c-4.1,6.2-12.4,8.6-19.2,5.5
		c-5.7-2.6-8.3-8.2-10.8-13.5c-5.5-12.1-7.8-25.8-6.3-39c0.5-4.9,1.1-10,4.4-13.9c4.4-5.2,11.9-6.8,18.1-4c0.3,0.1,1,0.6,1.2,0.5
		c0.2-0.1,0.7-0.7,0.8-0.9c0.4-0.5,0.9-0.9,1.3-1.3c1.4-1.3,2.9-2.6,4.7-3.4c3.4-1.6,7.4-1.8,10.9-0.5c0.8,0.3,1.6,0.7,2.4,1.1
		c0.4,0.2,0.7,0.4,1.1,0.7c0.3,0.2,1,1,1.2,1c0.2,0,0.8-0.4,1-0.5c0.4-0.2,0.8-0.4,1.2-0.5c0.9-0.3,1.8-0.6,2.7-0.9
		c1.4-0.4,2.9-0.7,4.3-0.9c1-0.1,2-0.1,3,0c0.5,0,1.1,0.3,1.5,0.2c0.5-0.1,0.1,0.2,0.5-0.2c0.2-0.2,0.2-0.5,0.4-0.7
		c3.7-6.7,12-9.7,19.1-7c0.8,0.3,1.6,0.7,2.3,1.1c0.2,0.1,0.4,0.3,0.5,0.3c0.5,0.2,0.1,0.1,0.6,0c0.5-0.2,1-0.6,1.5-0.8
		c1.7-0.8,3.6-1.3,5.6-1.4c3.6-0.2,7.1,0.8,10.1,2.9c1.4,1,2.6,2.1,3.6,3.5c3.8-4.4,9.9-6.3,15.5-4.9c5,1.3,9.2,5.1,10.8,10.1
		c0.8,2.4,0.9,4.9,1.1,7.4c5.5-2.5,12.2-1.5,16.7,2.5c1.9,1.7,3.4,3.9,4.3,6.3C162.5,39.3,162.6,41.6,162.5,44.1z"/>
</g>
</svg>
